# xmcd CD database file
#
# Track frame offsets:
#	150
#	24152
#	53631
#	72641
#	91916
#	115276
#	135590
#	155818
#	180096
#	204489
#
# Disc length: 3005 seconds
#
# Revision: 0
# Processed by: cddbd v1.5.2PL0 Copyright (c) Steve Scherf et al.
# Submitted via: CDex 1.70beta2
#
DISCID=7f0bbb0a
DTITLE=Natalie Cole - Everlasting
DYEAR=1987
DGENRE=Blues
TTITLE0=Everlasting
TTITLE1=Jump Start
TTITLE2=The Urge To Merge
TTITLE3=Split Decision
TTITLE4=When I Fall In Love
TTITLE5=Pink Cadillac
TTITLE6=I Live For Your Love
TTITLE7=In My Reality
TTITLE8=I'm The One
TTITLE9=More Than The Stars
EXTD=YEAR: 1987
EXTT0=
EXTT1=
EXTT2=
EXTT3=
EXTT4=
EXTT5=
EXTT6=
EXTT7=
EXTT8=
EXTT9=
PLAYORDER=
